<?xml version="1.0" encoding="utf-8"?>
<!-- Generator: Adobe Illustrator 16.0.0, SVG Export Plug-In . SVG Version: 6.00 Build 0)  -->
<!DOCTYPE svg PUBLIC "-//W3C//DTD SVG 1.1//EN" "http://www.w3.org/Graphics/SVG/1.1/DTD/svg11.dtd">
<svg version="1.1" id="Layer_1" xmlns="http://www.w3.org/2000/svg" xmlns:xlink="http://www.w3.org/1999/xlink" x="0px" y="0px"
	 width="1000px" height="1000px" viewBox="0 0 1000 1000" style="enable-background:new 0 0 1000 1000;" xml:space="preserve">
<style type="text/css">
<![CDATA[
	.st0{opacity:0;fill-rule:evenodd;clip-rule:evenodd;}
	.st1{fill-rule:evenodd;clip-rule:evenodd;}
]]>
</style>
<rect class="st0" width="1000" height="1000"/>
<g>
	<path class="st1" d="M317.9,748.5c-3.3,0-5.2-0.2-7,0c-7.1,0.8-14.2,1.7-21.3,2.6c-3.7,0.5-7.4,1.1-11.1,1.7
		c-9.1,1.4-18.2,2.7-27.3,4.1c-2.2,0.3-4.4,0.9-6.6,1.6c-4,1.2-7.8,2.6-10.5,6.2c-1.4,1.9-3.4,3.2-5.9,2.1c-2.3-1.1-3.2-3.3-3-5.6
		c0.5-5.8,1.3-11.6,2-17.3c0.1-0.7,0.4-1.4,0.7-2.1c1.4-3.1,3-4.3,6.2-3.5c11.7,2.9,23.5,2.2,35.4,2c4.9-0.1,9.8-0.5,14.6-1
		c13.5-1.3,26.9-3.1,40.4-4.2c11-0.9,22-1.3,33.1-0.9c1.9,0.1,3.7-0.3,5.6-0.6c2.3-0.3,4.1,0.4,5.2,2.5c1,2,0,3.4-1.3,5.1
		c-4.7,5.9-11.8,8.4-17.8,12.5c-5.9,4-12.6,6.7-17.9,11.6c-2.2,2-5.6,2.8-7.9,4.8c-2.2,1.9-3.6,4.8-5.4,7.2
		c-4.1,5.4-8.3,10.7-12.2,16.2c-1,1.3-1.1,3.2-1.8,4.7c-2,4.5-3.9,9-6.1,13.3c-3.4,6.8-0.4,11.4,7.3,11.1c5.8-0.3,11.7-0.6,17.5-0.9
		c11.8-0.6,23.7-1.2,35.5-1.7c5.2-0.2,9.6,1.2,12.3,6.3c1,1.9,3,3.3,4.6,4.8c1.8,1.6,1.7,3.2,0.1,4.8c-0.1,0.1-0.3,0.2-0.4,0.4
		c-2.4,3.9-5.3,5.3-10.1,4c-3.5-1-7.5-0.2-11.2-0.3c-5.3-0.1-10.5-0.5-15.8-0.5c-5.6,0-11.3-0.2-16.8,0.6
		c-10.4,1.4-20.8,3.1-31.1,5.4c-8,1.9-15.8,4.8-23.5,7.7c-2.3,0.9-4.2,3.1-5.8,5c-3.4,4-5.6,4.4-9.2,0.8c-1.2-1.1-2.1-2.6-2.8-4.2
		c-2.6-5.8-5.2-11.6-7.4-17.5c-0.6-1.5-0.7-4.1,0.2-5.2c4-4.9,7.7-10,13.1-13.7c10.8-7.3,20.8-15.5,28.5-26.3
		c1.7-2.4,4.2-4.3,6.5-6.3c6.5-5.5,11.6-12.2,16.4-19.3C309.2,760.7,313.2,755.2,317.9,748.5z"/>
	<path class="st1" d="M560.4,873c-5,0.3-8.8-0.7-12.4-3c-2.5-1.6-5-3.3-7.6-4.7c-14.4-7.5-27.4-16.8-35.7-31
		c-3.9-6.6-6.1-14.1-9-21.2c-1.6-4-2.1-8.5-4.2-12.2c-4-6.9-3.5-13.8-0.7-20.6c3.7-9,8.4-17.6,12.2-26.6c3.9-9.1,11.2-15.3,19-20.2
		c6.4-4.1,14.2-6.8,22.2-7.7c11.8-1.3,23.3-0.2,34.2,4.7c10.3,4.6,18.4,12.2,22.4,22.6c4.2,11,3,15.6-4.7,24.1
		c-6.3,6.9-14.6,10.4-23,13.5c-7.7,2.9-15.9,4.6-23.7,7.3c-6,2.1-11.9,4.5-17.7,7.3c-2.5,1.2-4.7,3.2-6.5,5.3c-4,4.3-3.9,7.9-1.3,13
		c4.8,9.4,11.7,17.4,17.7,25.9c2.9,4.1,7.2,7.1,10.9,10.6C556,863.4,558.7,867.3,560.4,873z M504,786.4c-1,3.5,0.5,5.5,2.8,7.1
		c3.5,2.5,7.2,3,11.1,1.1c2.2-1.1,4.4-2.1,6.7-2.9c7.4-2.8,13-8.1,18.2-13.7c1.1-1.2,1.9-2.8,2.4-4.4c1.6-5.8,3.2-11.6,4.2-17.5
		c1.3-7.7-7.1-16.5-14.5-14.5c-8,2.1-15.7,5.4-20.3,13.1C508.7,764.5,504,774.9,504,786.4z"/>
	<path class="st1" d="M795.8,841.9c9.3-1.3,18.6-2.5,27.8-4.1c2-0.3,3.9-1.9,5.8-3c0.8-0.5,1.2-1.6,2-1.9c6.5-2.3,8.4-7.6,8.9-13.7
		c0.9-9.9,2.4-19.9,2.3-29.8c-0.1-8.7,1-17.2,1.2-25.9c0.2-8.3,0.8-16.6-0.2-24.8c-1.1-9.8,4.9-13,13.6-13.8
		c1.1-0.1,2.2,0.4,3.3,0.4c8.3,0.6,8.7,0.6,9.1,8.9c0.3,7.1-0.7,14.2-0.9,21.4c-0.3,9-0.7,18-0.7,27c0,9.4,0.5,18.8,0.4,28.2
		c-0.1,6-0.1,12.1-1.5,17.8c-1.3,5.1-3.9,9.8-10.3,11.4c-7.3,1.8-14.2,4.9-21.2,7.4c-0.9,0.3-1.8,1.1-2.6,1
		c-9.4-1.6-18,3.2-27.2,3.2c-5.2,0-10.5,0.6-15.5-1.8c-0.6-0.3-1.4-0.3-2-0.1c-8.5,2.1-16.7,0.9-24.6-2.5c-6-2.6-9.7-7.8-8.6-14.4
		c1.8-10.4-0.2-20.6-0.3-30.9c-0.1-10.5-1.2-21-2.2-31.4c-0.5-6-0.8-12,0.4-18c0.8-4,1-8.2,1.2-12.3c0.3-3.6,4.3-9.1,7.7-10.1
		c3-0.9,7,2.5,6.6,5.9c-0.8,6.5-1.5,13.1-2.9,19.5c-1.6,7.7-1.4,15.3-0.5,23c0.3,2.8,0.4,5.6,0.6,8.4c0.4,9.6,0.7,19.2,1.3,28.8
		c0.3,5.9,2.3,11.3,5.6,16.4c3.9,6.3,9.7,8.6,16.6,9.1c2.2,0.2,4.5,0,6.8,0C795.8,841.6,795.8,841.8,795.8,841.9z"/>
	<path class="st1" d="M411,785c1.5-19.6,2.9-37.6,4.2-55.6c0.4-5.1,0.4-10.1,0.8-15.2c1.3-16.9,2.9-33.7,4.1-50.6
		c0.4-5.6,0.3-11.3,0.1-16.9c-0.2-5.5,0.6-7.2,5.3-10c3.9-2.3,7.5-5.1,11.4-7.3c2.7-1.5,5.7-3,8.7-3.6c4.2-0.9,6.5,1.2,6.4,5.5
		c0,2.6-0.1,5.5-1.2,7.7c-3.5,7.4-3.9,15.6-6.3,23.4c-2.4,8.1-5.3,16-7.6,24.2c-1.5,5.2-2.7,10.6-3.5,15.9
		c-2.1,14.9-4.7,29.7-4,44.9c0.1,2.4-0.3,4.9-0.5,7.3c-1.1,10.5-2.7,20.9-3.1,31.4c-0.2,7.2,1.2,14.6,2,21.8c0.1,0.9,0.5,1.9,1,2.6
		c5.8,9.2,10.8,19,18.5,26.8c1.8,1.8,4.3,3,6.7,4c4.2,1.8,3.6,7.5,0.3,8.5c-8.1,2.3-16.2,6.2-25.1,3.2c-1.6-0.6-3.1-1.4-4.8-1.7
		c-4.7-0.8-6.6-4.2-7.4-8.2c-1.5-7.2-2.8-14.4-3.8-21.6c-0.8-6.3-1.2-12.7-1.6-19.1C411.5,796.1,411.2,789.7,411,785z"/>
	<path class="st1" d="M180.9,722.3c0.5,6.2,0.8,11.9-0.7,17.6c-1.4,5.6-3.4,11.3-3.6,17c-0.6,15.4-2.1,30.8-0.2,46.2
		c1.4,11.7,2.8,23.5,4.2,35.2c0.7,5.8,1.3,11.6,1.8,17.4c0.3,3.5-1,5.2-4.5,6c-2.2,0.5-4.5,0.7-6.7,1.2c-3.6,0.8-7.3,1.6-10.9,2.8
		c-4.1,1.3-6,1.2-8.5-1.8c-1.8-2.2-3.3-3.4-6.1-1.4c-2.1,1.5-3.9,0.3-4.3-1.7c-0.5-3.1-0.8-6.4-0.3-9.5c1.8-10.6,2.8-21.2,1.8-32
		c-0.6-6.7,0.2-13.5,0.4-20.3c0-1.7-0.1-3.4-0.2-5.1c-0.2-3.1,0.5-5.8,2.4-8.4c1.3-1.7,2.2-3.9,2.5-6c1.2-9.5,2.3-19,3.2-28.6
		c0.2-1.8-0.3-3.7-0.5-5.6c-0.4-3.6,0.7-6.4,3.7-8.8c6.8-5.5,14.5-9.1,22.2-13.1C177.7,722.8,179.1,722.7,180.9,722.3z"/>
	<path class="st1" d="M633.7,795.2c-2.6,0.2-5.3,0.4-7.9,0.4c-5.3,0.1-7.5-2.1-7.6-7.5c-0.1-4.4,0.6-8.4,2.7-12.5
		c1.9-3.8,3.1-8.1,4.1-12.3c2.6-10.8,9.6-18.3,18.6-23.8c9.3-5.7,19.3-9.8,30.7-8.9c4.3,0.3,8.6-0.5,12.9-0.1
		c4.4,0.5,8.8,1.8,13,3.2c2.6,0.8,3.4,3.1,1.8,5.4c-1.2,1.8-3,3.4-4.8,4.6c-4.2,2.9-8.5,5.5-11.1,10.2c-0.6,1-2.6,1.8-3.7,1.6
		c-3.8-0.7-7.6-1.5-9.1-6.2c-1.8-5.4-3.6-6.1-9.4-5.7c-11.8,0.9-19.5,7.7-25.4,17.3c-0.6,1-0.9,2.1-1.4,3.1
		c-3.2,6.7-2.8,8.6,2.7,13.7c3.3,3,7.3,4.6,11.4,5.8c9.7,2.8,19.5,5.6,29.2,8.4c6.3,1.8,12.7,3.3,18.8,5.6c7.6,2.9,14.5,7,19.4,13.8
		c2.6,3.6,5.8,7,7.8,10.9c2.9,5.5,1.2,9.7-4.4,12.5c-8.2,4.1-16.6,7.3-25.8,9.2c-14.3,3.1-28.2,7.6-39.2,18.5
		c-3.7,3.6-8.3,6.3-11.3,10.8c-1.8,2.7-14.8,4-17.8,2.2c-0.7-0.4-1.3-0.7-2-1.1c-4.3-2.1-4.8-4.2-1.1-7.4c3.5-3.1,7.3-5.9,11.4-8.3
		c5.8-3.4,11.9-6.3,17.9-9.4c1.5-0.8,3.2-1.4,4.4-2.5c6.4-5.6,14.5-7.8,21.9-11.4c7.2-3.6,14.5-7.2,21.5-11
		c4.9-2.6,4.9-5.2,2.3-10.2c-3.7-7-10.5-7.7-17-9.4c-2.2-0.6-4.4-0.6-6.6-1.3c-9.5-2.8-19.1-5.4-28.5-8.7c-4.8-1.6-9.3,0.2-13.9-0.1
		C636.7,794.8,635.2,795.2,633.7,795.2C633.7,795.2,633.7,795.2,633.7,795.2z"/>
	<path class="st1" d="M154.4,709.9c-3.6,0.6-6.5,1.5-9.5,1.6c-2.7,0.1-5.3-0.9-6.6-3.5c-1.3-2.6-0.1-5,1.3-7.4
		c6.9-12.3,19-14.9,31.3-17.2c1.5-0.3,3.8,0.7,5,1.8c4.7,4.5,3.1,14-2.8,16.7C166.8,704.9,160.3,707.4,154.4,709.9z"/>
</g>
<path class="st1" d="M456.4,148c11-3.8,20.2-7,29.4-10.2c0.7,0.6,1.4,1.3,2.2,2c-2.1,2.6-3.7,6.7-6.4,7.7
	c-15.9,5.6-23.6,17.9-29,32.7c-1.4,3.8-4,7.1-6.1,10.5c5,15.4,16.2,19.3,31.1,17.9c15.5-1.4,31-1.9,49.1-3
	c-4.1,4.4-7.4,7.1-9.6,10.6c-3.1,4.9-11.9,6.8-8.1,15.6c0.5,1.2-2.7,5.4-4.9,6.3c-5.2,2-7.2,6.4-10.5,9.9
	c-5.4,5.7-14.8,7.6-24.9,12.2c-1.1,13.1-16.7,11.4-26.1,17.7c-1.1,11.8-2.6,23.1-3,34.4c-0.7,20.7,6.4,40.1,12.1,59.4
	c2.9,9.9,1,17.5-4.7,24.3c-2.5,3-8.4,5.4-11.9,4.6c-3.2-0.7-7.3-6-7.6-9.6c-1.4-15.7-1.8-31.5-2.3-47.3c-0.4-14-0.8-28.1-0.3-42.1
	c0.7-17.5-9.8-25.5-25.4-19.5c-9.3,3.5-19.1,6.5-28.8-3.5c3.4-3.6,6.8-7.1,10.9-11.4c-2.6-2.1-5.4-4.4-8.7-7.1
	c2.9-6.7,15.6-8.4,9.7-18.9c6.1-5.2,11.8-11,18.5-15.3c5.2-3.3,11.7-4.8,15.5-6.2c0.9-10.2,1.7-18.3,2.5-27.7
	c-10.3-9.9-25.9-10.8-43.3-15.6c13.7-8.4,23.4-18.9,36.1-20.5c15.5-1.9,17.1-21.1,34.1-22.4C449,137.7,452.7,142.8,456.4,148z"/>
<path class="st1" d="M588.1,191.4c-0.3,4.8-0.6,8.8-1,14.8c15.9-3.3,30.7-6.4,47.2-9.8c-5.1,20.1-13.8,36.4-32.2,46.1
	c-16.6,8.7-22.5,24.7-16.5,43.3c1.2,3.8,1.3,9.7-0.8,12.7c-9.1,13.2-8.4,27.5-7,42.2c1.1,11.1,2.3,22.1,3.1,33.2
	c0.3,4.1,0.6,8.4-0.6,12.2c-0.8,2.7-4.1,6.3-6.3,6.4c-2.5,0.1-6.9-3-7.4-5.4c-1.9-8.5-3.3-17.3-3.3-26c0.1-18.7,1.6-37.4,1.7-56.1
	c0.1-9.2-1.6-18.4-2.6-27.7c-11.3,1.1-21.5,1-31.1,3.4c-9.7,2.4-18.7,7.3-28.9,9.7c2.9-9.6,11.4-12.7,17.7-18
	c3.9-3.3,9.3-5,7.3-12.2c-0.5-1.9,2.2-5,4-7.1c1.9-2.1,4.3-4.1,6.9-5.4c19.3-10,24.6-25.9,21.3-46.7c-1.6-10.1-0.3-20.8-0.3-31.8
	c-12.6-4.4-24.7,9.1-36.8-1.6c3.9-9.7,15.7-8.3,22.5-15.5c-0.4-2.5-0.8-5.7-1.4-10c16.1-7.9,29.6-24.6,52.2-15.5
	c-7.9,20-28.1,35.4-24.4,60.8C577.3,188.8,582.7,190.1,588.1,191.4z"/>
<path class="st1" d="M120.7,221.1c-13.9-6.6-25.8-12.2-39.5-18.7c9.8-7.7,16.1-15.2,9.2-25.8c22.4-17.3,46.1-24.8,74.6-25.2
	c-7,16.8,3.4,26.3,12.3,36.7c-8.2,9.7-14.5,20.2-27.5,23.9c-2.7,0.8-5.3,5.8-6.1,9.3c-7.3,30.7-13.5,61.7-10.8,93.4
	c1.8,22,5.5,43.9,8.4,65.9c0.8,5.6,2,11.2,2.9,16.5c-17.7,6.4-24,2.9-23.9-13c0.3-32.1,1.4-64.1,2-96.2c0.4-19.2,0.6-38.4,0.5-57.7
	C122.7,226.2,121,222.4,120.7,221.1z"/>
<path class="st1" d="M205.6,275.9c18.6-3.2,33.5-13.8,49-24.2c8.6-5.8,18.3-6.8,30.1,1.6c11.6,8.2,27,15.9,45.6,8.6
	c-1.3,5.1-1.2,7.7-2.4,8.9c-13.3,13.7-24,30-44.7,35.3c-8.5,2.2-13.6,12-13.1,22.5c0.8,18.6,1.2,37.2,2.3,55.8
	c0.3,5.1,0.8,10.1-5.1,11.1c-6.1,1.1-10.1-2.7-10.7-8.8c-0.5-6.3-0.2-12.7-0.5-19c-0.6-13.9-0.8-27.8-2.3-41.6
	c-0.8-7.3-5.2-12.2-14-12.9c-8.2-0.7-16.4-1.1-16.5-14.7C223.2,291.5,212.8,284.6,205.6,275.9z"/>
<path class="st1" d="M743.2,259.6c-1.2,13.9-23.5,18.9-8.9,35.5c-3.9,2.4-7.2,4.5-10.5,6.7c-3.3,2.1-7.9,3.5-9.6,6.6
	c-11.5,20.8-23.3,41.7-16.1,67.2c1.8,6.4,2,13.3,3.1,20.8c-15.9-4.2-17.7-5.5-17.8-16.8c0-11.7,1.5-23.4,1.7-35.1
	c0.5-23.1-4.4-27.7-27.3-27.4c-6.3,0.1-12.6-1.1-18.7-1.6c-1.9-12.1-1.9-12.1,7.1-22.8c-1.1-1.5-2.1-3.6-3.8-4.8
	c-1.8-1.4-4.3-2-5.7-2.6c2.4-3.8,2.7-5.2,3.6-5.6c11.6-5.2,22.5-11.1,33.2-18.6c16.1-11.3,35.4-13.3,54.7-5.8
	C733,257.1,738,258.1,743.2,259.6z"/>
<g>
	<path class="st1" d="M678,638.8c-7.9,0.7-12.6,1.2-17.5,1.7c-11.6-22.5-5.9-45.8-7.1-69.3c-5.4-1.9-10.6-3.8-16.4-5.8
		c0-4.5,0-8.7,0-12.8c-20.2-16.8-43.4-8.8-69.2-6.8c4.4-6.4,6.1-10.2,8.9-12.9c9.7-9.2,19.8-18,29.8-26.9c1.4-1.3,3.6-2,4.5-3.5
		c3.8-6.8,6-15.1,11.2-20.5c5.4-5.6,13.6-8.6,20-12.3c-9.5-40.1,9.4-58.5,33.7-47.3c0.2,2.9,0.2,6.5,0.7,10c2,14.4,6.3,18.1,21,18.5
		c5,0.2,9.9,0.7,15.8,1.1c0.2,15.5-1.7,30.5,7.8,43.3c0.8,1,0,3.7-0.8,5.3c-4.4,8.5,0.7,11.3,7.6,13.5c4,1.3,7.8,3.4,12.6,5.6
		c-4.9,10-11.6,16.2-20.2,20.6c-10.7,5.6-21.3,11.5-32.1,16.9c-16.5,8.3-18.7,13.1-16,32C674.6,604.8,676,620.6,678,638.8z"/>
	<path class="st1" d="M270.5,641.7c-14-1.2-14.4-1.3-15.2-13c-1.1-15.6-2-31.2-2.6-46.9c-0.3-7.7-4.6-11.2-11.3-10.6
		c-18.1,1.9-32.8-6.3-49.7-15.3c3.7-5.6,6-11.9,10.6-15.6c7.5-6.1,8.6-13,6.4-20.5c7-6.1,13.6-11.4,19.8-17.1
		c6.8-6.3,10.1-13.7,3.7-22.6c14-8.3,21.8-27.8,43.9-19.2c-3.5,5-6,8.6-9.5,13.7c12.2,0.7,22.4,1.3,33.6,2c-2.2,6.9-3.8,11.9-5.7,18
		c4.9,0,8.9,0,13.1,0c2.5,8.9,0.2,15.4-6.5,19.4c3.6,7.6,6.9,14.6,10.6,22.5c-14.6,8.2-36.6,8.5-31.8,33.4
		c-3.9,2.8-7.8,5.6-13.6,9.8C267.5,599.6,269,620.6,270.5,641.7z"/>
	<path class="st1" d="M548,498.4c-8.9,2.8-15.4,4.9-21.7,6.9c-2.1,11.9-4.1,23.5-6,35c-1.5,8.6-4.5,17.2-4.1,25.7
		c1.2,22.2,3.7,44.4,6.2,66.5c1.7,15.1-2.2,18.8-20.9,17.2c-8.6-44.1,2.2-88.5,0-132.7c-12.1-8.4-23.5-16.1-39.6-13.7
		c-11.6,1.8-17.7-8-23.9-17.9c3.8-5.1,7.8-10.6,12.6-16.9c-2.6-4.3-5.4-8.8-9.6-15.7c9.2-1.8,16.4-3.6,23.7-4.6
		c11.9-1.6,21.5-6.7,29.7-15.5c9.1-9.9,19.2-10.1,31.3-2.5c5.9,3.6,12.4,7.1,19,8.4c6.8,1.4,11.2,3.1,14.5,9.9
		c2,4.1,8.2,6.1,12.5,9.1c-16.2,11.7-16.2,11.7-18.2,24.7c-5,1.6-10.3,3.4-17.5,5.7C539.7,491.2,542.7,493.8,548,498.4z"/>
	<path class="st1" d="M138.1,644.5c-1.2-3.2-3.5-6.5-3.6-9.9c-0.6-29.1-0.9-58.2-1.2-87.3c-0.1-4.3,0.3-8.7-0.1-13
		c-0.5-5.7-3.7-9.4-9.6-8.2c-8.6,1.8-15.8-1.3-23.3-4.3c-3.6-1.5-8.1-1.1-12.2-1c-5.7,0.2-11.4,1.1-17.8,0
		c11.2-15.9,31.6-19.5,43.1-35c-0.8-3.7-3.9-9.4-2.2-12.6c3.9-7.4,10-13.7,15.4-20.2c1-1.2,2.8-1.6,4.1-2.5
		c14.8-9.6,19.7-8.7,31,5.4c2,2.5,3.8,5.2,6.1,8.2c4.7,0,9.4,0,16.5,0c-2.2,5.4-4.6,9.4-5.5,13.7c-0.8,4.5-0.2,9.2-0.2,13.8
		c3.4,1,6.6,2,9.7,2.9c0,0.9,0.1,1.7,0.1,2.6c-7.4,2.7-14.9,5.3-22.3,8.1c-12,4.4-19.3,14.7-18.6,27.8c0.7,12.9,2.5,25.7,3.5,38.6
		c0.7,8.6,0.9,17.2,1.1,25.9c0.2,10.2-0.2,20.4,0.1,30.6C152.4,639.8,152.2,640.2,138.1,644.5z"/>
	<path class="st1" d="M374.5,639.6c-14.4-0.3-16-0.9-16.7-12.6c-1.2-18.3-1.3-36.7-1.3-55c-0.1-33.5,0.1-66.9,0.2-100.4
		c0-14-4.7-18.1-18.7-16.3c-2.9,0.4-5.8,0.1-12.2,0.1c5.5-4.8,8.4-7.3,12.6-10.9c-6.2-0.5-11.6-0.9-20.2-1.6
		c3.4-5.2,5.1-8.6,7.7-11.3c6.9-7.3,14.6-13.9,21.3-21.4c15.7-17.8,37.2-16.8,50.9,2.6c1.4,2,4.5,2.9,7.6,4.7
		c-4.7,5.5-7.6,8.9-11.4,13.3c3.5,1.6,6.4,3,9.8,4.7c-1.3,1.6-2,3.1-3.2,3.9c-9.2,5.8-18.9,10.3-25.7,20.2
		c-3.7,5.5-5.4,9.9-5.2,15.8c1.6,50.1,3.2,100.2,4.8,150.4C374.7,630.3,374.5,635,374.5,639.6z"/>
	<path class="st1" d="M782.4,436.4c-11.5-11.6-28.8-14.2-34.5-29.8c3.1-6.9,6-13.5,8.9-20.1c1.8-4.1,37-22.2,41.4-21
		c6.6,1.8,13.1,3.9,20.6,6.2c-0.6,18.6-10,34.2-18.4,50.1c-1.4,2.6-4.5,5-4.6,7.6c-1.9,27.7-4.3,55.5-4.6,83.2
		c-0.3,28,1.3,56.1,2.7,84.1c0.5,9.5,3.8,18.8,4.2,28.3c0.2,4.1-2.5,11.1-5.6,12.2c-6.4,2.4-11.1-2.8-11.9-9
		c-1.3-10.1-2.1-20.3-1.9-30.5c1-46.6,2.5-93.1,3.7-139.7C782.6,450.5,782.4,442.9,782.4,436.4z"/>
	<path class="st1" d="M859.9,404.6c10.8,4.2,19.6,7.4,28.2,11.1c8.9,3.8,12.6,10.1,9,19.8c-3.2,8.8-1.7,20.8-13.3,21.4
		c-4.3,13.4-9.6,25-11.6,37.1c-2.2,13.7-1.8,27.9-1.9,41.8c-0.1,14,1,28,1,42c0,18,1.6,35.6,8.5,52.4c2.2,5.4,5,11.3-2.9,14.3
		c-7.3,2.8-12.7-1.3-15.7-7.3c-1.8-3.7-1.4-8.6-1.4-13c0.1-43.9,0.5-87.8,0.6-131.8c0-9.6-1.4-17.8-10.2-25.1
		c-6-4.9-8.1-15.3-10.7-23.6c-3-9.3,3.3-15,9.3-21.3C853.7,417.4,856.5,410.4,859.9,404.6z"/>
</g>
<path class="st1" d="M843.1,232.5c-22.7-5.4-46-3.6-70.1-3.2c0-5.3-0.4-8.8,0.1-12.1c0.5-2.7,2.2-5.1,3.6-8.2
	c-6.8-0.8-12.8-1.5-19.3-2.3c1-8.3,7.1-8.2,11.5-10.4c26-12.8,51.9-25.9,78-38.4c9.5-4.6,18.5-10.7,30.7-3.7
	c6.3,3.6,15.8,2,23.8,1.9c5-0.1,10-1.7,16.3-2.9c0.7,17.7-17.1,12.1-23,21.6c5.9,3.6,12,7.3,19.6,11.9c-18,9.9-27.5,29.3-48.5,33.7
	c-3,0.6-5,6.7-6.9,10.5c-0.7,1.3,0.4,3.4,0.4,5.2c0.2,14.8,1.1,29.5,0.2,44.5c-1.4,22.5,2.7,45.3,4.4,68c0.7,8.7,1.8,17.4,1.8,26.1
	c0,7.7-5.9,9.8-12.2,8.9c-9.6-1.3-15.8-9.4-15-19.5c1.3-16.9,4-33.7,4.5-50.6C843.7,287.2,843.1,261,843.1,232.5z"/>
</svg>
