<?xml version="1.0" encoding="utf-8"?>
<!-- Generator: Adobe Illustrator 16.0.0, SVG Export Plug-In . SVG Version: 6.00 Build 0)  -->
<!DOCTYPE svg PUBLIC "-//W3C//DTD SVG 1.1//EN" "http://www.w3.org/Graphics/SVG/1.1/DTD/svg11.dtd">
<svg version="1.1" id="Layer_1" xmlns="http://www.w3.org/2000/svg" xmlns:xlink="http://www.w3.org/1999/xlink" x="0px" y="0px"
	 width="420px" height="320px" viewBox="0 0 420 320" style="enable-background:new 0 0 420 320;" xml:space="preserve">
<style type="text/css">
<![CDATA[
	.st0{fill-rule:evenodd;clip-rule:evenodd;fill:none;}
	.st1{fill-rule:evenodd;clip-rule:evenodd;fill:hsl(226, 27%, 90%);}
]]>
</style>
<rect class="st0" width="420" height="320"/>
<path class="st1" d="M285.5,109.1c0.7-0.8,1.2-1.5,1.8-2.1c2.2,0.6,3.4-0.1,4.5-2c2.2-4,2.8-8.4,3.8-12.8c0.4-2,0.3-4.2,0.4-6.3
	c0.2-1.9,0.5-3.8,0.6-5.7c0.2-3.9-0.2-7.7-1.6-11.4c-0.8-2-1.8-4-2.8-5.9c-0.5-1-1.3-2-2.1-2.8c-2.3-2.2-4.6-4.5-7-6.6
	c-2.3-1.9-4.3-4.1-7.2-5.2c-1.1-0.4-1.9-1.4-3-2.1c-3.2-1.9-6.6-3.3-9.9-5c-3.2-1.6-6.5-3-10-3.7c-2.1-0.4-4.1-1.5-6.1-2.3
	c-0.3-0.1-0.6-0.4-1-0.5c-3.6-0.4-6.7-2.5-10.4-2.5c-1.2,0-2.5-0.4-3.7-0.7c-0.6-0.2-1.2-0.5-1.8-0.9c-1.7-1.3-2-3.2-0.4-4.7
	c1.8-1.6,3.6-3.2,5.7-4.4c2.7-1.5,5.6-2.6,8.4-3.8c2.1-0.9,4.2-1.7,6.3-2.5c3.3-1.3,6.7-1.2,10.2-1.4c3.2-0.2,6.4-0.3,9.6-0.7
	c5.2-0.6,10.4-1.5,15.6-2.3c1.3-0.2,2.6-0.1,3.9-0.3c2.5-0.3,4.9-0.7,7.4-0.9c1.3-0.1,2.6,0.1,3.9,0.2c1.2,0.1,2.5,0.4,3.7,0.3
	c6.1-0.5,12.1,0.5,18.2,1.1c2.4,0.2,4.7,1.2,7,1.8c1.6,0.4,3.2,0.6,4.7,1c2.3,0.6,4.6,1.3,6.9,2c2.4,0.8,4.8,1.6,7.2,2.5
	c5.6,1.9,11.1,3.9,16.2,7.1c3.1,1.9,5.9,4,8.6,6.4c2.7,2.5,5.7,4.8,8.3,7.4c1.9,1.9,3.7,4,5.4,6c2.4,2.7,4.9,5.4,7.1,8.3
	c1.3,1.7,2.3,3.7,3.3,5.6c1,1.8,2,3.7,3,5.6c0.3,0.6,0.7,1.2,0.8,1.8c0.7,4.2,1.5,8.3,2,12.5c0.5,4.4-0.3,8.7-0.7,13.1
	c-0.1,1.6-0.4,3.2-0.5,4.8c-0.3,4-1.8,7.6-3.9,11.1c-1.6,2.6-3.4,5.1-5,7.7c-3.5,5.7-8.4,10.2-12.8,15.1c-1.9,2-3.5,4.2-5.3,6.4
	c-0.6,0.7-0.6,1.5,0,2.2c0.6,0.6,1.3,1.2,2,1.6c1.7,0.9,3.4,1.7,5.1,2.6c0.4,0.2,0.9,0.4,1,0.8c0.8,1.5,2.2,2,3.5,2.8
	c1.4,0.8,2.5,1.9,3.8,3c2.3,2,4.7,4,6.9,6c1.1,1,2,2.1,2.9,3.2c0.5,0.7,0.8,1.6,1.4,2.2c3.1,3.1,4.7,7.2,6.9,10.9
	c1.1,1.8,1.6,3.7,1.4,5.8c-0.2,2.5,0.1,5-0.9,7.3c-1.3,3.2-2.7,6.3-5.2,8.8c-2,1.9-3.9,4-5.8,6c-2.5,2.7-5.7,4.6-9.2,5.3
	c-2.9,0.6-6,1.3-9,0.2c-2.3-0.8-4.1-2.2-5.7-3.9c-1.3-1.4-2.5-3.1-3.8-4.5c-1.6-1.8-3.2-3.6-5.1-5.1c-2.6-2.1-5.1-4.4-8.6-5.5
	c-2.2-0.7-4.2-2.1-6.6-2c-1.1,0-2.2,0.1-3.2,0.3c-5.5,1.3-10,4.6-14.3,8.2c-1.3,1.1-1.8,2.4-0.6,4.2c2.1,3.1,4.5,5.6,7.8,7.5
	c3.2,1.9,6.2,4.1,9.3,6.2c0.5,0.4,1,0.9,1.4,1.3c1.5,1.5,3,3,4.5,4.5c1.6,1.5,2.9,3,3.4,5.2c0.4,1.8,1.2,3.5,1.5,5.3
	c0.2,1.7,0,3.5-0.2,5.2c-0.1,0.5-0.6,1-1,1.4c-2.1,1.6-4.2,3.3-6.5,4.8c-3,1.8-6.1,3.4-9.2,5.1c-4,2.2-8.2,3.7-12.7,4.7
	c-2.4,0.5-4.7,0-6.8-1c-3.1-1.4-6.1-2.8-9-4.5c-2.8-1.6-5.4-3.7-8.2-5.4c-4.1-2.5-7.7-5.9-12.2-7.6c-4-1.4-7.4-3.8-11.3-5.2
	c-1.9-0.7-3.9-1.2-5.8-1.9c-1.9-0.7-3.8-1.5-5.8-2.1c-2.2-0.7-4.4-1.2-6.6-1.7c-2.5-0.5-5-1-7.6-1.3c-1.3-0.2-2.6-0.1-3.9,0.1
	c-1.5,0.3-2.7-0.6-4-0.7c-0.3,0-0.7-0.3-1-0.4c-4.6-0.5-9.1-1-13.7-1.5c-6.1-0.6-12.2-1.3-18.3-1.8c-1.7-0.2-3.3-0.2-5-0.1
	c-4,0.2-8,0.4-12,0.7c-1.3,0.1-2.6,0.4-3.9,0.6c-3.1,0.6-6.3,1-9.3,2.2c-2.1,0.8-4.4,1-6.5,1.9c-3.5,1.5-6.8,3.4-10.1,5.1
	c-3.7,1.9-7.4,3.8-11.1,5.7c-2.1,1.1-4.1,2.2-6.5,2.6c-0.4,0.1-0.9,0.3-1.1,0.6c-1.8,2.5-4.6,3.5-7,5c-0.3,0.2-0.6,0.4-0.9,0.6
	c-3,2.1-6,4.1-8.9,6.3c-5.6,4.3-12,6.6-19,7.2c-3.3,0.3-6-0.8-8.3-3c-2.3-2.2-4.7-4.2-6.9-6.4c-1.3-1.3-2.4-2.9-3.5-4.5
	c-1.2-1.6-1.2-3.7-1-5.5c0.1-1,1.2-2.1,2.2-2.9c2.7-2.2,5.5-4.1,8.5-5.8c4.9-2.7,9.7-5.8,14.3-8.9c1.6-1.1,2.9-2.7,4-4.3
	c1.9-2.8,1.5-4.3-0.7-7c-2-2.4-4.5-3.9-7.2-5.1c-0.5-0.2-1.1-0.5-1.7-0.5c-3.4,0-6.8-0.3-10.1,1.3c-2.8,1.3-5.7,2.6-8.6,3.8
	c-2.4,1-4.8,2.4-7.3,3c-3.6,0.9-7.3,2-10.9-0.2c-2.7-1.7-5.5-3.3-7-6.4c-0.3-0.7-0.7-1.3-1.2-1.8c-2.1-2-2.9-4.7-3.8-7.3
	c-0.2-0.7,0-1.7,0.4-2.5c0.4-0.8,1.1-1.4,1.7-2c2.9-2.3,5.5-5,8.8-6.8c3.3-1.8,6.5-3.7,9.9-5.1c2.3-1,4.5-2.4,6.5-4
	c0.9-0.7,1.3-2.2,1.8-3.4c0.3-0.8-0.4-1.2-1.1-1.4c-1.1-0.3-2.1-0.6-3.2-0.8c-3.5-0.7-7-1.4-10.5-2.1c-0.1,0-0.1,0-0.2,0
	c-4.2,0.1-8.1-1.1-12.1-2.1c-1.4-0.3-2.8-0.8-4.2-1.1c-1.8-0.3-3.6-0.6-5.4-0.8c-0.6-0.1-1.3-0.2-1.9-0.4c-1.4-0.3-2.7-0.6-4-1
	c-1.2-0.4-2.4-1-3.6-1.4c-3.4-1.2-6.8-2.3-10.1-3.6c-2.2-0.9-4.2-2-6.3-3c-1.5-0.7-3-1.4-4.6-2c-2.8-1.1-5.6-2.1-8.3-3.4
	c-3.1-1.4-5.4-3.7-6.5-7c-0.8-2.3-1.5-4.6-2.2-6.9c-1-5.6,2.7-11.2,6.8-12.3c2.4-0.7,4.9-0.6,7.2,0.9c2.2,1.4,4.3,3,6.7,4.2
	c1.5,0.8,3.3,1.1,5,1.4c4.3,0.9,8.7,0.4,13.1,0.5c0.2,0,0.4,0,0.7-0.1c5-1.1,10-2,15-3.3c4.4-1.1,8.7-2.5,13-3.8
	c1.5-0.5,3-1.3,4.4-1.9c3.3-1.3,6.6-2.7,10-4c3.5-1.4,6.7-3.3,9.4-5.9c3.3-3,6.6-5.9,9.8-9c2.3-2.2,4.1-4.7,5.3-7.7
	c0.6-1.6,1.6-3,2.1-4.6c1.8-5.4,3.4-10.8,4.2-16.5c0.4-2.7,1-5.5,1.6-8.2c0.5-2.2,3-3.1,4.9-1.7c1.3,1,2.7,2,4.2,2.7
	c0.7,0.3,1.2,1.2,1.6,2c1.9,3.4,3.7,6.8,5.4,10.2c1.3,2.7,2.4,5.5,3.5,8.2c0.6,1.4,1.1,2.8,1.8,4.2c0.8,1.6,2.1,1.7,3,0.3
	c1.4-2.2,2.8-4.5,3.9-6.8c2.1-4.4,3.8-9,6.9-12.9c2.2-2.8,5.3-3.9,8.9-3.2c1.2,0.3,2.2,1,2.6,2.1c0.9,2.7,1.8,5.4,2.6,8.1
	c0.1,0.3,0.1,0.6,0,0.9c-0.7,2,0.1,3.7,1.1,5.4c1.2,2.1,1.8,4.3,1.9,6.7c0.1,3.3,1.5,6.2,3.1,9c1.9,3.6,4.1,7.1,6.2,10.6
	c0.4,0.7,0.9,1.3,1.4,2c2.3,3.2,5.5,4.4,9.2,4c1.7-0.2,3.3-1.1,4.8-1.9c1.9-1.1,3.6-2.5,5.4-3.8c3.2-2.4,6.2-4.8,9.4-7.1
	c1.9-1.4,4-2.8,6.1-3.9c1.4-0.7,3.1-0.9,4.7-1.1c3.1-0.3,6.1-0.6,9.2-0.6c2.5,0,5,0.4,7.4,0.7c2.4,0.3,4.8,0.6,7.1,1.1
	c3.3,0.7,6.6,1.7,10,2.6c2.3,0.6,4.7,1.1,7,1.9c1.6,0.5,3.1,1.3,4.6,2c3.9,1.9,7.7,3.9,11.2,6.4
	C284.1,108.4,284.7,108.7,285.5,109.1z M237.7,27.8c3.3,1,6.3,2,9.3,2.8c2.6,0.7,5.3,1.1,7.9,1.7c0.7,0.2,1.4,0.4,2.1,0.7
	c3.4,1.6,6.7,3.2,10,4.7c0.5,0.2,1,0.3,1.4,0.5c3.2,1.5,6.5,2.8,9.4,4.6c2.5,1.5,4.8,3.6,7.1,5.5c0.5,0.4,0.8,0.9,1.2,1.3
	c0.3,0.3,0.6,0.7,0.9,0.9c4,2.9,6.5,7,9.4,10.8c2.2,2.9,2.8,6.6,3.5,10.1c0.6,3.1,1.4,6.2,1,9.5c-0.7,5.6-1,11.3-2.4,16.9
	c-1.1,4.4-1.4,9-3.3,13.4c-0.8,1.9-1.8,3.6-3.1,5.1c-1.1,1.3-2.3,1.6-3.8,1.2c-0.6-0.2-1.3-0.3-1.9-0.6c-1.9-1-3.8-2.1-5.7-3.2
	c-2.5-1.5-5.2-3-7.5-4.8c-2.7-2.2-5.7-3.6-8.9-4.5c-4.1-1.2-8-3-12.3-3.9c-3.5-0.8-7-1.6-10.5-1.8c-5.6-0.4-11.2,0-16.8,1.3
	c-1.6,0.4-3.1,0.9-4.4,1.8c-4.8,3.4-9.7,6.8-14.6,10.1c-1.6,1.1-3.3,2.1-4.9,3.3c-2.4,1.8-5.4,1.4-8.1,2.1c-0.2,0-0.4-0.1-0.6-0.1
	c-5.2-1.3-8-5.3-10.6-9.5c-0.5-0.8-0.8-1.7-1.3-2.5c-1.4-2-2.9-3.8-3.6-6.2c-0.2-0.5-0.5-1-0.8-1.5c-2.6-4.1-4.4-8.5-5.7-13.2
	c-0.5-1.9-1.1-3.9-1-5.7c0.2-3.1-1.2-5.4-3-7.5c-0.6-0.8-1.3-0.7-2.3-0.1c-2.2,1.4-3.6,3.4-4.6,5.7c-0.4,0.9-0.9,1.8-1.3,2.8
	c-1.3,2.9-2.7,5.7-4.6,8.2c-3.1,4.1-5.5,4.9-9.5,3.5c-2-0.7-3.1-2-3.7-4c-0.2-0.6-0.4-1.3-0.6-1.9c-1.2-3-2.4-6.1-3.6-9.1
	c-1-2.4-2-4.9-3.1-7.2c-0.9-1.8-2.2-3.4-4.5-4.2c-0.3,0.6-0.6,1.2-0.8,1.8c-0.4,1.9-0.6,3.9-1,5.8c-0.5,2.6-0.9,5.3-1.8,7.9
	c-1.4,4.1-3,8.1-4.8,12c-0.8,1.9-2,3.7-3.3,5.4c-1.3,1.7-2.9,3.3-4.4,4.8c-1.8,1.8-3.5,3.7-5.4,5.3c-3,2.5-6,5-9.6,6.7
	c-3.7,1.8-7.3,3.5-11.3,4.5c-1.3,0.3-2.5,0.7-3.7,1.3c-5.4,2.6-11.1,4.6-17.1,5.3c-1,0.1-2,0.5-2.9,0.8c-4,1.6-8,3-12.3,3.1
	c-6.6,0.3-13.1,0.3-19.5-1.7c-3.6-1.1-6.8-3-10-4.6c-1-0.5-1.9-0.4-2.6,0.6c-0.3,0.6-0.5,1.3-0.9,1.7c-1.8,2-1.6,4.3-1.2,6.6
	c0.1,0.6,0.4,1.1,0.5,1.7c0.3,2.1,1.6,3.3,3.4,4.3c1.6,0.9,3.2,2.1,4.8,3.1c0.5,0.4,1.1,0.8,1.7,1.1c3.8,1.9,7.7,3.9,11.6,5.8
	c2,0.9,4.1,1.5,6.1,2.3c1.5,0.5,3.1,1,4.5,1.7c3.5,1.8,7.2,2.8,11,3.6c3.3,0.7,6.6,1.3,9.9,1.9c3.2,0.6,6.3,1.3,9.5,1.8
	c3.6,0.6,7.3,0.8,10.9,1.5c2.3,0.4,4.5,1.2,6.7,1.9c1.2,0.4,2.1,1.2,2.7,2.4c1.3,2.6,1,5-0.6,7.4c-1,1.6-2.6,2.5-3.9,3.7
	c-2.2,1.9-4.5,3.8-6.8,5.5c-1.6,1.2-3.1,2.6-4.9,3.2c-3.5,1.2-6.2,3.5-8.9,5.7c-0.5,0.4-0.9,1.2-0.9,1.9c0,1.1,0.2,2.4,0.6,3.4
	c1.2,2.9,2.7,5.6,5.9,7c1.1,0.5,2.1,0.9,3.3,0.9c4.2,0,7.8-1.7,11.4-3.4c2.4-1.1,4.6-2.5,7-3.5c1.6-0.7,3.4-0.9,5-1.6
	c1.9-0.8,3.8-0.8,5.8-0.5c0.6,0.1,1.2,0.3,1.7,0.3c5.1,0.1,9.2,2.6,13.3,5.2c0.3,0.2,0.6,0.5,0.7,0.8c0.6,1.9,1.7,3.5,3.1,4.9
	c0.1,0.1,0.2,0.4,0.2,0.6c0.1,2.6,0.2,5.4-1.7,7.4c-1.8,1.9-3.8,3.7-5.8,5.3c-1.5,1.2-3.2,2-4.8,3c-3.7,2.4-7.4,5-11.2,7.3
	c-2.4,1.4-4.1,3.5-6.2,5.2c-1.3,1.1-1.3,1.5-0.4,3c1.5,2.5,3.5,4.5,6,6c0.7,0.4,1.2,1,1.8,1.5c2.1,1.9,3.9,4.2,7.2,3.7
	c1.1-0.2,2.2-0.3,3.2-0.6c3.1-0.8,6-1.7,8.6-3.7c3-2.3,6.1-4.5,9.2-6.7c3.9-2.6,7.8-5.1,11.7-7.6c1.2-0.7,2.6-1.1,3.7-1.8
	c3.5-2.3,7.1-4.2,10.8-6c2.3-1.1,4.6-2.2,6.9-3.2c1.1-0.5,2.3-0.9,3.4-1.4c4.5-2.4,9.3-4.2,14.3-5.5c1.5-0.4,3-0.7,4.4-1.3
	c2.4-1.2,5.1-1.7,7.6-1.9c5.3-0.4,10.7-0.1,16,0c4,0.1,8,0.2,12,0.5c4.2,0.3,8.5,0.6,12.6,1.2c5.5,0.8,11,1.8,16.4,2.9
	c6.8,1.3,13.6,2.8,20.2,5c0.8,0.2,1.5,0.6,2.2,0.9c1.5,0.7,3,1.5,4.5,2.2c2.8,1.3,5.5,2.7,8.3,4c1.1,0.5,2.3,1,3.4,1.5
	c1.9,0.8,3.8,1.5,5.5,2.5c3.6,2.3,6.9,4.9,10.4,7.2c3.3,2.2,6.8,4.3,10.3,6.3c3.1,1.8,6.6,1.7,10,1c2.2-0.4,4.3-1.5,6.3-2.5
	c2.5-1.3,4.9-2.9,7.3-4.3c2.9-1.6,5.9-3.2,8.9-4.8c1.5-0.9,1.9-1.9,1.4-3.5c-1.9-5.5-5.1-10.2-9.8-13.7c-4.1-3.1-8.4-5.8-12.6-8.7
	c-0.7-0.5-1.3-1-1.8-1.6c-1.2-1.6-2.4-3.3-3.5-5c-1.6-2.5-1.6-5.1,0.2-7.6c0.7-1,1.6-1.9,2.5-2.7c1.3-1.2,2.7-2.2,4.1-3.3
	c0.7-0.5,1.4-1,2.2-1.4c2.4-1.1,4.7-2.3,7.2-3.2c1.8-0.7,3.7-1.5,5.5-1.3c2.6,0.3,5.2,0.6,7.8,1.9c4.1,2,7.7,4.7,11,7.8
	c4.3,4,8.6,7.9,12.9,11.8c0.6,0.5,1.3,1,2,1.3c0.6,0.3,1.5,0.6,2.1,0.4c1.7-0.5,3.4-1,4.8-1.9c4.1-2.8,7.5-6.3,10.6-10.1
	c1.3-1.6,2.3-3.3,3.3-5.1c1.2-2.2,1.6-4.6,1.1-7c-0.9-4.7-3.6-8.6-6.4-12.3c-1.3-1.8-2.8-3.5-4.2-5.3c-2.2-2.7-4.4-5.5-7.2-7.6
	c-3-2.4-6.8-3.7-9.5-6.6c-0.1-0.1-0.4-0.2-0.6-0.3c-1.4-0.5-2.9-1-4.3-1.5c-3.3-1.2-4.4-3.5-3.3-6.9c0-0.1,0.1-0.3,0.2-0.4
	c0.6-2.9,2.9-4.8,4.4-7.2c1.3-2,3.4-3.6,5.1-5.4c1.4-1.4,2.9-2.7,4.2-4.2c1.8-2,3.3-4.2,5-6.3c2-2.4,3.5-5,4.4-8
	c0.7-2.2,1.3-4.5,1.9-6.7c0.5-2,0.7-4,1.4-5.9c0.5-1.5,0.6-3,0.2-4.5c-0.9-4.3-2.1-8.6-2.6-13c-0.7-6-3.8-11-6.4-16.2
	c-1.3-2.7-3.2-5.2-4.8-7.8c-0.4-0.7-0.6-1.5-1.2-2.1c-2.6-3.1-5.2-6.1-7.9-9c-2.1-2.2-4.3-4.1-7-5.4c-1.4-0.7-2.6-1.6-3.9-2.4
	c-2.1-1.5-4.2-3.1-6.4-4.6c-2.6-1.7-5.2-3.2-7.8-4.8c-1.6-1-3.3-1.8-5-2.6c-0.7-0.4-1.5-0.5-2.2-0.9c-3.9-2.1-8-3.9-12.4-4.7
	c-0.5-0.1-1-0.3-1.5-0.5c-1.4-0.4-2.8-0.9-4.2-1c-3.6-0.4-7.1-0.5-10.7-0.8c-2.9-0.2-5.8-0.4-8.7-0.6c-3.1-0.2-6.1-0.2-9.2,0.3
	c-2.5,0.5-5,1.4-7.6,0.4c-0.3-0.1-0.7,0-1.1,0c-1.9,0.4-3.8,1-5.7,1.3c-3.4,0.4-6.8,1.2-10.2,0.8c-0.4,0-0.7,0-1.1,0.1
	c-2.7,0.9-5.4,1.8-8.1,2.7c-0.5,0.2-1.2,0.1-1.7,0.1c-1.3-0.2-2.6,0-3.9,0.5c-1.6,0.7-3.3,1.3-4.9,1.9c-1.2,0.5-2.5,0.9-3.6,1.6
	c-1.8,1.1-3.6,1.9-5.7,2.3C239.8,25.6,238.8,26.3,237.7,27.8z"/>
<path class="st1" d="M237.2,289.6c0.2-3.8,1.3-6.6,2.9-9.1c0.8-1.3,2.4-2,3.8-2.9c2.2-1.5,4.6-2.4,7.3-2.6c0.8-0.1,1.6-0.2,2.3-0.5
	c3.3-1.3,8.6,0.7,9.9,5c0.5,1.7,1,3.4,1.3,5.1c0.2,0.8,0.1,1.8-0.1,2.6c-0.6,2.3-1.3,2.8-3.7,2.9c-3.6,0.3-7.1,0.7-10.7,1
	c-1.5,0.1-2.9,0.2-4.4,0.3c-2.7,0.1-3.7,2.1-2.3,4.5c2.5,4.4,6.4,6,11.1,6.1c4.3,0.1,8.4-0.9,12.5-2c0.9-0.2,1.8-0.6,2.8-0.7
	c0.8,0,1.8,0.1,2.4,0.6c0.6,0.5,1.2,1.6,1.2,2.4c0.1,1.1-1,1.4-2,1.6c-6.2,1.6-12.6,2.8-19,2.8c-4.2,0-7.9-1.7-10.5-5.4
	c-0.5-0.8-1.3-1.4-1.8-2.1C237.9,296.1,237.6,292.5,237.2,289.6z M243.4,286.5c0.5,0,0.9,0.1,1.3,0.1c3.6-0.2,7.3-0.3,10.9-0.6
	c0.6,0,1.3-0.2,1.9-0.4c2.3-0.8,2.8-3.7,1-5.3c-1.3-1.1-2.9-1.4-4.5-1.2c-3.6,0.5-6.8,2-9.5,4.5
	C243.7,284.4,243.3,285.3,243.4,286.5z"/>
<path class="st1" d="M120.2,278.4c1.1,0.7,2.1,1.4,3.1,1.9c3.4,1.8,5.6,4.7,7.1,8c1.2,2.6,1.3,5.2-0.5,7.8c-1.6,2.3-3.2,4.5-5.7,5.9
	c-3.1,1.8-6.4,2.3-9.9,2.3c-3,0-6-0.2-9-0.1c-2.4,0.1-3-1.3-3.3-3.2c-0.1-0.4,0.3-1,0.7-1.2c1-0.5,2-1,3-1.1c3.3-0.4,6.7-0.4,10-0.8
	c3.1-0.4,6-1.4,8.7-3.3c2.5-1.8,2.3-4.2,0.8-5.8c-2.5-2.6-4.9-5.2-8.8-5.7c-1.6-0.2-3.1-0.6-4.7-0.9c-1.2-0.2-1.8-1.8-1-3
	c0.7-1,1.7-1.8,2.5-2.7c1.1-1.1,2.2-2.1,3.5-3.2c-0.3-0.2-0.6-0.5-0.8-0.5c-2.8-0.2-5.5-0.3-8.3-0.4c-1.2-0.1-2.3-0.1-3.5-0.3
	c-1.3-0.2-2-1.1-2-2.2c0-1.4,1-2.8,2.2-2.9c5.9-0.5,11.7-0.5,17.2,1.9c0.6,0.3,1.3,0.3,1.9,0.6c0.7,0.4,1.5,0.9,1.9,1.6
	c1.3,2.1,1,2.7-1.2,3.9C122,276.2,121.6,276.5,120.2,278.4z"/>
<path class="st1" d="M73.3,270.6c9-3.1,17.2-7,25.5-10.8c1.4,0.8,1.6,1.9,1.2,3.2c-1.1,4.3-2.3,8.6-3.4,12.9
	c-0.7,2.8-1.1,5.6-1.6,8.4c-0.3,1.3-0.5,2.6-0.9,3.8c-0.4,1-1,2-1.6,2.8c-0.3,0.4-1.1,0.6-1.5,0.5c-0.4-0.1-0.9-0.9-0.9-1.3
	c0.1-2,0.2-3.9,0.5-5.9c0.3-2.4,0.8-4.7,1.3-7.1c0.4-1.9,0.8-3.7,1.2-5.5c0.1-0.4,0.1-0.9,0.2-1.3c0-1.5-0.7-2-2.1-1.4
	c-3.6,1.5-7.3,3.1-10.8,4.8c-3.8,1.8-7.4,3.8-11.2,5.6c-0.9,0.4-2,0.4-3,0.4c-1.5-0.1-2.1-0.8-1.9-2.3c0.2-1.1,0.7-2.1,1.1-3.1
	c0.5-1.3,1-2.6,1.5-3.8c0.3-0.7,0.6-1.5,0.9-2.2c0.4-0.9,0.9-1.7,1.3-2.5c1.5-3.5,2.8-7,4.3-10.5c0.5-1.2,1.2-2.4,2-3.4
	c1.1-1.3,2.3-1.1,3,0.5c0.8,1.7,0.4,3.3-0.2,4.9c-1.3,3.5-2.8,7-4.2,10.6C73.5,268.4,73.5,269.3,73.3,270.6z"/>
<path class="st1" d="M367.7,285c1.1-0.6,2-1,2.8-1.5c3.2-1.9,6.4-3.7,9.6-5.7c2.4-1.5,4.6-3,7-4.5c0.7-0.4,1.4-0.8,2.2-1
	c1.4-0.5,2.8,0,3.3,1c0.6,1.1,0.3,2.5-1.1,3.4c-1.1,0.8-2.2,1.4-3.4,2c-1.6,0.8-3.2,1.6-4.8,2.4c-2.2,1.1-4.2,2.5-5.6,4.4
	c-0.9,1.3-0.9,2,0.5,2.9c2.8,1.8,5.7,3.5,8.6,5.2c2.7,1.6,5.4,3.2,8.1,4.8c1.3,0.8,1.3,1.8,0.4,3c-0.7,1.1-1.6,1.2-2.8,0.5
	c-2.9-1.6-5.7-3.3-8.7-4.6c-3.7-1.6-6.7-4-10-6.2c-0.5-0.4-1.1-0.8-1.6-1.1c-2.1-1.1-4.2,0-4.4,2.4c-0.2,3.2-0.4,6.4-0.4,9.6
	c0,1.6-0.4,2.9-1.4,4c-0.8,0.9-1.5,0.8-2.3-0.2c-1.5-1.9-2-4-1.7-6.5c0.5-3.5,0.4-7.1,0.6-10.7c0.1-1.2,0.2-2.5,0.1-3.7
	c-0.1-2.8-0.3-5.5-0.4-8.3c0-0.7-0.1-1.3,0-2c0.1-1.3,0.9-2.3,1.8-2.5c1-0.2,2.3,0.6,2.7,1.8c0.3,0.9,0.3,1.8,0.4,2.8
	c0.1,2,0.2,3.9,0.3,5.9C367.1,283.2,367.4,283.9,367.7,285z"/>
<path class="st1" d="M300.8,296.7c0.9-1.4,0.5-3.2-0.1-4.9c-0.1-0.3-0.8-0.6-1.2-0.7c-2.9-0.3-5.7,0.1-8.4,1.2
	c-0.7,0.3-1.5,0.7-2.3,0.8c-1.3,0.1-1.9,0.9-1.9,2c-0.1,2-0.2,4.1-0.1,6.1c0.1,2.1-1.1,3.4-3.2,3.1c-1.2-0.2-2-1-2-2.7
	c0-2.3,0.2-4.7,0.5-7c0.7-5.7,1.5-11.3,0.3-17c-0.1-0.3-0.1-0.7,0-1.1c0.2-1.2,1.1-2.2,2-2.3c0.9-0.1,1.8,0.5,2.1,1.8
	c0.4,2,0.6,4,0.7,6.1c0.1,1.4-0.1,2.8-0.1,4.2c0,1.3,0.3,1.6,1.6,1.4c1.1-0.2,2.1-0.5,3.2-0.7c2.9-0.5,5.7-1,8.7-1.5
	c0.1-1.7,0.2-3.5,0.3-5.3c0-2.8-0.1-5.5-0.1-8.3c0-0.8,0-1.6,1-2c0.8-0.3,1.9,0.1,2.4,1.1c0.3,0.5,0.4,1.1,0.5,1.7
	c0.3,6.1,0.5,12.2,0.8,18.4c0.2,3.6,0.5,7.1,0.7,10.7c0.1,1.7,0.3,3.5-1.6,4.6c-1.5,0.9-2.5,0.7-2.8-1.1c-0.2-1.6-0.1-3.2-0.3-4.8
	C301.3,299.2,301,298.1,300.8,296.7z"/>
<path class="st1" d="M189.5,286.4c-1.3-0.6-2,0-2.8,0.6c-1.2,1.1-2.5,2.2-3.8,3.3c-0.6,0.5-1.2,0.8-1.9,1.1
	c-1.2,0.5-2.1,1.1-1.7,2.4c-1.8,0.1-3.5,0.1-5.2,0.2c-0.9,0.1-1.5-0.4-2-1.1c-0.2-0.3-0.4-0.8-0.4-1.2c-0.3-3.4-0.7-6.8-0.8-10.2
	c-0.1-2.3,0.2-4.5,0.3-6.8c0.1-0.8,0.2-1.6,0.5-2.3c0.3-0.5,1-0.9,1.6-0.9c0.4,0,0.8,0.7,1.2,1.1c0.2,0.2,0.2,0.6,0.2,0.8
	c0.6,3.2,0.9,6.5,1.8,9.6c0.3,1.1,0.1,2.3,0.1,3.6c0.6-0.2,1.2-0.2,1.5-0.4c4.3-2.5,8.2-5.6,11.8-9c0.5-0.5,0.9-1.1,1.5-1.6
	c1.1-1,2-1.1,3-0.5c1.1,0.7,1.6,1.6,1.4,2.9c-0.6,3.8-1.4,7.6-1.7,11.4c-0.3,3.5-0.3,7.1-0.3,10.7c0,2.2,0.2,4.3,0.3,6.5
	c0,0.5-0.1,1-0.1,1.5c-0.2,0.9-0.8,1.4-1.7,1.5c-0.8,0.1-1.7,0.1-2.1-0.8c-0.5-1-1-2.2-0.9-3.3c0.1-5.8,0.3-11.5,0.4-17.3
	C189.6,287.8,189.5,287.1,189.5,286.4z"/>
<path class="st1" d="M318.5,290.7c0.8-2.5,1.5-5,2.3-7.5c0.1-0.4,0.4-0.8,0.8-1c2.6-1.7,5.3-3.4,7.9-5.1c0.1-0.1,0.3-0.1,0.4-0.2
	c3.4-0.3,6.7-0.9,10.1,0.7c2.9,1.4,5.4,3.2,7.4,5.6c1.4,1.7,2.8,3.6,2,6.1c-0.4,1.4-1,2.4-2.1,3.2c-3.4,2.6-7.2,4.5-11.3,5.7
	c-2.9,0.8-5.8,1.3-8.8,1.8c-2.5,0.4-6.8-1.4-7.7-4.9c-0.3-1.1-0.7-2.2-1-3.4c-0.1-0.3,0-0.7,0-1.1
	C318.6,290.8,318.6,290.7,318.5,290.7z M334.6,281.4c-2.4,0-4.8,0.1-6.7,2c-0.8,0.8-1.7,1.6-2.5,2.4c-1.7,1.6-2.4,3.6-2.2,5.9
	c0.1,2.2,1.1,3.3,3.3,3.7c0.6,0.1,1.3,0,2,0c2.3,0,4.4-0.6,6.6-1.2c2.8-0.8,5.2-2.2,7.4-4.1c1.3-1.1,1.6-2.9,0.7-4.3
	c-0.4-0.7-0.9-1.4-1.6-1.8C339.4,282.8,337.3,281.3,334.6,281.4z"/>
<path class="st1" d="M219.7,295c2.5-0.3,4.9-0.7,7.4-1c1.7-0.2,3.5-0.6,5.2-0.7c1.4-0.1,2,0.7,1.5,2c-0.5,1.3-1.6,2.1-2.9,2.4
	c-3.3,0.7-6.6,1.3-9.9,2c-1.4,0.3-2.9,0.5-4.3,0.6c-4.4,0.2-8.4-1.3-12.1-3.2c-1.7-0.9-3.1-2.6-4.4-4.1c-0.5-0.6-0.7-1.8-0.7-2.7
	c0-2.4,1-4.4,2.5-6.4c1.9-2.4,4.3-3.5,7.2-4.2c2.8-0.6,5.5-1.4,8.4-0.7c0.5,0.1,1.3,0.3,1.5,0.7c0.6,1,1.2,2.2,1.5,3.3
	c0.2,0.7-1,1.6-2,1.7c-0.3,0-0.6,0-0.9-0.2c-1.7-0.9-3.6-0.3-5.3-0.4c-2.1-0.1-3.8,1-5.4,2.1c-0.8,0.5-0.9,1.4-0.4,2.1
	c0.6,0.9,1.2,1.9,2.1,2.5C212,293,215.6,294.8,219.7,295z"/>
<path class="st1" d="M150.4,283.1c-1.1,1.6-2,2.8-2.8,4.2c-0.8,1.5-1.3,3.1-2.1,4.6c-1.2,2.2-2.6,4.2-3.7,6.4
	c-0.7,1.4-1.6,2.4-2.9,3.1c-0.5,0.3-1.4,0.5-1.8,0.3c-0.4-0.3-0.8-1.2-0.6-1.7c0.6-2.2,1.1-4.4,2.1-6.4c2.2-5,4.4-10,7.3-14.7
	c0.3-0.5,0.5-1.2,0.6-1.8c0.6-2,1.7-2.5,3.4-1.3c1.5,1.1,3,2.3,4.3,3.7c2.5,2.8,4.8,5.9,7.3,8.6c2.1,2.2,4.2,4.4,6,7
	c0.6,0.9,0.8,1.8,0.4,2.9c-0.9,2-2.5,2.2-3.8,0.5c-2.2-2.7-4.2-5.4-6.4-8C155.4,288,153,285.8,150.4,283.1z"/>
<path class="st1" d="M254.8,270.6c-0.2-0.1-0.7-0.2-1.1-0.5c-1.2-1.2-1.7-2.8-1.4-4.4c0.2-1.5,1.8-2,3.1-2.5c1.6-0.7,4,0.4,4.8,2
	c0.2,0.3,0.3,0.7,0.2,1C260.1,268.3,257.1,270.7,254.8,270.6z"/>
<path class="st1" d="M240.4,271.3c-0.8-0.1-1.3-0.2-1.8-0.3c-1-0.1-1.9-0.5-2-1.3c-0.1-0.7,0.4-1.7,0.9-2.3c0.9-1.2,3.6-1.8,4.6-1.3
	c1.1,0.6,1.8,1.9,1.5,2.9C243.2,270.3,241.6,271.4,240.4,271.3z"/>
<path class="st1" d="M140.1,110.7c1,0.1,2.5,0.2,3.9,0.5c4.1,1,6.7,4.1,8.8,7.5c1.7,2.8,2.1,6,2.2,9.3c0.2,4.6-2.5,7.7-6.7,9.5
	c-2.7,1.1-5.6,1.9-8.6,1.7c-3.7-0.3-7.2-1.1-9.9-4c-2.3-2.5-4.5-5-5.3-8.4c-0.6-2.4-1-4.9,0.1-7.3c0.6-1.4,1-2.9,1.8-4.2
	c2-3.3,5.3-4.4,8.9-4.6C136.7,110.4,138.2,110.6,140.1,110.7z M138.5,133.2c1.7-0.3,4.4-0.5,7-1.2c3.2-0.8,4.9-2.7,4.9-5.4
	c0-1.4-0.5-2.8-0.8-4.3c-0.4-2.1-1.9-3.2-3.7-3.9c-0.7-0.3-1.4-0.7-2.1-1.1c-0.7-0.3-1.4-0.7-2.2-0.9c-3.1-0.6-6.1,0.2-9,1.1
	c-2.8,0.9-4.2,4.2-3.4,7.1c0.6,2.2,1.9,3.9,3.2,5.6C133.6,132.2,135.3,133,138.5,133.2z"/>
</svg>
